<svg version="1.1" viewBox="0 0 200 200" xmlns="http://www.w3.org/2000/svg">
<path d="m31.4 180c0.32-0.459 0.347-0.791 0.2-2.44-0.0934-1.05-0.177-2.04-0.185-2.2-0.0091-0.174-0.149-0.237-0.354-0.158-0.526 0.202-2.85-1.02-3.87-2.03-1.2-1.19-2.52-3.9-2.77-5.7-0.328-2.37 0.32-5.19 1.59-6.92l0.491-0.669-0.509-0.128c-0.748-0.188-1.78-1.13-2.25-2.06-0.229-0.448-0.884-2.66-1.46-4.91l-19.5-68.7c-0.727-0.603-1.53-4.18-1.53-6.8 0.0047-6.64 4.21-13.3 9.72-15.4 2.61-0.982 3.26-1.03 12.2-0.817 4.59 0.107 9.16 0.274 10.2 0.371 1.96 0.191 2.12 0.166 2.12-0.326 0-0.676 1.15-4.06 1.95-5.75 0.61-1.29 0.778-1.85 0.635-2.12-0.107-0.206-0.45-1.14-0.76-2.07-1.89-5.68-1.72-10.7 0.53-15.6 2.17-4.66 6.08-8.14 11-9.83 1.76-0.597 2.35-0.69 4.87-0.772 2.31-0.0753 3.27-0.0111 4.91 0.329 4.17 0.862 8.98 3.83 11.1 6.82 0.342 0.491 0.406 0.503 1.48 0.276 2.99-0.63 5.42-0.771 13.4-0.781 5.51-6e-3 8.78 0.0759 9.77 0.245 3.41 0.584 3.47 0.582 3.63-0.0832 0.184-0.763 1.01-2.43 1.86-3.76 1.42-2.21 5.09-4.55 8.42-5.36 1.96-0.476 5.41-0.483 7.57-0.015 4.03 0.871 8.19 3.78 10.1 7.05 1.44 2.49 2.3 7.14 1.88 10.1-0.375 2.64-1.96 5.62-4.08 7.69-0.736 0.717-0.985 1.09-0.841 1.27 0.571 0.711 4.29 18 4.29 19.9 0 1.47 0.182 1.62 2.16 1.78 2.82 0.235 4.33 1.17 6.24 3.85 2.78 3.9 2.72 5.8-0.307 10.2-0.694 1.02-1.94 3.33-2.78 5.14-3.86 8.37-7.87 14.7-12 18.8-0.94 0.948-2.17 2.02-2.74 2.38l-1.03 0.653 2.02 0.944c1.11 0.519 2.44 1.23 2.96 1.59 2.17 1.49 4.77 4.87 5.28 6.86 0.224 0.865 0.349 1.01 1.02 1.21 2.03 0.609 8.56 4.35 10.2 5.82 0.461 0.424 0.478 0.426 0.478 0.0318-7e-5 -0.426 2.23-8.59 2.54-9.33 0.1-0.234 0.516-1.57 0.924-2.97 1.76-6.03 2.85-9.4 3.32-10.2 0.332-0.591 0.954-1.19 1.8-1.74 2.69-1.75 0.562-1.6 23-1.6h20l1.38 0.681c1.85 0.916 2.88 1.81 3.51 3.05 0.667 1.32 0.668 2.41 4e-3 4.56-0.286 0.928-1.32 4.36-2.31 7.63-2.37 7.9-5.02 16.4-6.42 20.6-0.626 1.89-1.2 3.77-1.27 4.16-0.132 0.704-0.116 0.724 0.69 0.852 1.28 0.204 3.46 1.4 4.55 2.49 1.27 1.27 1.67 2.73 1.26 4.57-1.8 4.72-14.2-1.41-14.7 3.62 0.0235 0.129 0.248 1.23 0.499 2.44 0.388 1.88 0.44 2.69 0.352 5.39-1.98 5.63-12.8 21-20.2 25.7-0.914 0.305-0.186 0.516 2.08 0.602 2.57-0.214 4.97 1.69 3.11 3.56-23.6 2.09-49.1 0.647-73.3 0.647-39-2.28-39.2 2.21-58-12.7zm99.4 3.08c7.37-1.92 8.58-2.41 11.3-4.48 5.69-3.98 15.8-22.7 7.1-24.4l-1.91-0.105-11.6 0.0389-0.929 0.929c-1.14 1.14-3.72 2.67-5.94 3.53-1.9 0.733-4.53 1.11-6.34 0.913-1.07-0.117-1.24-0.0848-1.36 0.265-0.0794 0.219-0.779 1.02-1.56 1.78s-1.74 1.76-2.15 2.23c-0.406 0.467-1.07 1.12-1.47 1.46-0.404 0.336-0.787 0.814-0.851 1.06-0.137 0.532-0.6 0.59-0.9 0.113-0.33-0.523 0.421-2.61 1.37-3.8 0.449-0.564 0.816-1.12 0.816-1.24 0-0.497-2.49-2.6-3.61-3.06-1.67-0.673-5.44-0.661-8.25 0.0275-1.82 0.446-2.23 0.654-4.97 2.5-1.64 1.11-3.66 2.35-4.49 2.77-3.61 1.82-8.38 3.56-11 4.02-3.54 0.617-7.92 0.0781-10.1-1.24l-0.702-0.429-0.716 0.837c-0.902 1.05-3.53 2.88-4.94 3.44-2.53 0.997-4.23 1.18-10.8 1.19-3.42 9.7e-4 -6.21 0.0821-6.21 0.18-1.3e-4 0.098 0.896 1.31 1.99 2.69 1.09 1.38 2.36 3.04 2.81 3.69l0.823 1.19c4.59-2.9 7.31-0.429 17.3-0.374 10.9 0.0599 11 0.064 12.4 0.557 1.75 0.631 3.04 1.42 6.48 3.97 2.89 2.15 3.98 2.79 5.73 3.39 13.1 1.09 22.2-0.775 32.8-3.6zm16.7 3.41c5.34-1.11 9.84-2.98 14-5.8 5.52-9.5 20.5-26.6 4.16-26.6h-6.16l-0.337 0.652c-0.185 0.359-0.998 1.69-1.81 2.96-1.87 2.94-2.41 4.13-3.4 7.54-1.15 3.96-1.95 6-3.5 9.02-1.68 3.26-2.92 4.93-5.37 7.27-1.97 1.87-6.79 5.27-7.49 5.27-0.22 0-0.399 0.11-0.399 0.244 0 0.462 7.36 0.0685 10.3-0.554zm-114-22.6c4.73-1.91 2.17-6.97-2.43-2.42-0.954 0.995-1.48 2.84-1.36 4.73 0.11 1.65 0.443 2.58 1.14 3.19 4.93 2.66 3.06-2.49 2.64-5.5zm52.4 1.34c2.51-0.851 2.86-1.24 3.32-3.72l0.376-2.02-0.626-1.71c-0.684-1.87-1.56-3.41-2.23-3.94-0.525-0.417-0.37-1.46 0.217-1.46 0.607 0 2.78 2.54 3.61 4.21 0.652 1.32 0.782 1.82 0.862 3.34 0.0517 0.986 0.188 1.79 0.303 1.79s0.843-0.303 1.62-0.673c1.85-0.883 3.72-2.73 4.07-4.01 0.543-2.02-0.399-4.74-2.63-7.57-1.11-1.41-1.45-2.23-1.03-2.49 0.448-0.277 3.15 2.17 4.18 3.79 0.376 0.589 0.901 1.67 1.17 2.4 0.265 0.73 0.552 1.33 0.637 1.33 0.0852 0 0.431-0.597 0.768-1.33 0.532-1.15 0.613-1.58 0.613-3.24-1.8e-4 -2.43-0.578-3.77-2.49-5.77-2.46-2.56-5.6-3.99-10.4-4.74-2.73-0.422-3.44-0.748-3.87-1.78-0.584-1.4-0.989-1.58-6.3-2.9-5.43-1.35-6.98-1.85-6.98-2.25 0-0.599 0.873-2.01 1.39-2.25 0.765-0.349 3.04 0.203 9.55 2.31 3.74 1.21 4.51 1.61 4.73 2.43l0.181 0.697 1.9-0.0603c2.28-0.0721 3.93 0.275 6.55 1.37 2.55 1.07 4.61 2.49 6.51 4.48 2.7 2.83 3.86 6.03 3.41 9.38-0.123 0.917-0.423 2.17-0.665 2.79-0.243 0.615-0.414 1.14-0.38 1.18 0.0335 0.0317 0.778-0.0838 1.65-0.257 1.12-0.222 2.45-0.287 4.51-0.22l2.92 0.094 1.96 0.972c1.08 0.535 2.3 1.18 2.71 1.42l0.748 0.451 1.45-0.969c0.795-0.533 1.58-0.969 1.75-0.969 0.18 0 0.302-0.214 0.302-0.531v-0.531l-2.92-8.5e-4c-3.64-9.8e-4 -6.39-0.42-7.48-1.14-1.5-0.992-2.03-3.05-1.47-5.67 0.46-2.14 2.71-3.77 5.48-3.97 0.797-0.0571 1.5-0.0201 1.56 0.0821 0.0628 0.102 0.852 0.154 1.75 0.115l1.64-0.0708-0.145-1.52c-0.266-2.79-1.19-3.86-3.32-3.86-1.13 0-1.26-0.0448-1.26-0.438 0-0.241 0.284-0.711 0.632-1.04 0.619-0.593 0.655-0.6 1.75-0.348 0.616 0.142 1.65 0.567 2.29 0.945 1.35 0.794 2.12 2.04 2.13 3.42 4e-3 1.45 0.24 2.43 0.608 2.54 0.19 0.053 0.742 0.158 1.23 0.234 0.799 0.124 0.896 0.0902 1.02-0.356 0.0744-0.271 0.387-1.04 0.695-1.71l0.559-1.22-0.985-1.05 0.46-1.07c0.415-0.966 0.43-1.13 0.155-1.65-0.394-0.754-1.14-1.43-3.1-2.83-2.5-1.78-3.99-3.13-5.7-5.19-0.874-1.05-1.72-2.04-1.87-2.19-0.385-0.385-0.358-1.75 0.0474-2.33 0.54-0.772 0.995-0.577 1.67 0.717 1.31 2.5 3.38 4.65 6.87 7.13 1.32 0.936 2.89 2.16 3.5 2.71 1.02 0.935 1.1 1.08 1.11 1.99l7e-3 0.984 0.81 6.3e-4c0.446 4.4e-4 0.984 0.0938 1.2 0.208 0.858 0.459 2.13 3.51 2.13 5.11v0.868l1.76-0.131 1.21-4.25c1.75-6.15 1.74-5.52 0.1-6.86-2.21-1.81-7.44-4.99-11.1-6.74-1.67-0.801-1.79-0.956-2.83-3.66-0.712-1.85-1.76-3.15-3.47-4.33-1.9-1.31-4.03-2.18-7.52-3.06-3.3-0.838-3.6-0.972-3.89-1.73-0.416-1.09-0.112-1.47 1.99-2.46 1.87-0.877 4.67-2.58 5.57-3.39 0.233-0.208 0.911-0.748 1.51-1.2 1.57-1.19 5.73-6.48 6.93-8.82l0.328-0.637-3.43-6e-3c-3.22-5e-3 -3.53-0.0419-5.13-0.611-2.23-0.796-3.15-1.27-4.62-2.38l-1.22-0.925v0.612c0 1.6-2.69 3.94-4.82 4.19-0.596 0.0705-1.18 0.191-1.31 0.268-0.139 0.0857-0.25 1.37-0.287 3.34-0.0707 3.67 0.0387 4 1.24 3.78 0.544-0.102 0.743-0.0525 0.844 0.211 0.18 0.468-0.278 0.971-1.3 1.42-1.23 0.546-5.77 0.638-6.54 0.133-0.654-0.428-0.912-1.13-0.569-1.54 0.217-0.262 0.333-0.26 0.856 0.0102 0.933 0.482 1.65 0.387 2.35-0.314l0.626-0.626-0.118-6.26-1.5-0.253c-2.64-0.444-4.55-1.61-5.41-3.3-0.491-0.962-0.534-2.25-0.0971-2.88 0.486-0.694 2.06-1.52 3.54-1.86 1.64-0.378 6.09-0.733 7.39-0.591l0.952 0.104-0.742-0.823c-1.35-1.5-3.51-5.69-4.31-8.38-0.334-1.12-4.35-1.6-5.87-0.713-0.676 0.397-0.799 0.631-1.4 2.65-1.7 5.78-5.12 10.1-10.1 12.6-3.07 1.58-5.51 2.13-8.12 1.8-2.45-0.303-3.05-0.491-4.73-1.5-5.36-3.2-8.59-8.67-8.59-14.5v-2.17l-1.86-1.28c-2.92-2.02-5.99-3.4-11-4.96-2.62-0.815-7.55-1.92-8.74-1.96l-1.24-0.0425-0.243 1.91c-0.426 3.35-0.56 8.52-0.302 11.7 0.714 8.72 2.28 15.1 5.13 21.1 1.99 4.15 3.2 5.78 6.42 8.58 1.47 1.29 1.64 1.65 1.08 2.43-0.587 0.837-1.2 0.597-2.82-1.11-0.828-0.872-1.55-1.51-1.61-1.41-0.355 0.575-2.37 6.74-3 9.16-0.786 14.9 1.58 5.55 2.77 21.9 0.301 4.16 0.706 5.59 1.97 6.99 0.932 1.03 1.82 1.5 4.17 2.18 2.99 0.867 5.49 1.2 10.3 1.39 3 0.115 5 0.292 5.84 0.516 3.01 0.803 6.12 2.91 6.93 4.68 0.503 1.11 0.497 2.18-0.0197 3.54-0.229 0.603-0.367 1.18-0.305 1.28 0.0615 0.0995 0.416 0.339 0.788 0.532 1.41 0.734 2.53 0.906 5.45 0.842 2.48-0.0546 3.1-0.143 4.63-0.662zm22.5-21.2-0.562-0.442 0.413-0.58c0.88-1.24 0.755-2.55-0.409-4.31-0.741-1.12-0.671-1.66 0.217-1.66 0.688 0 1.44 0.791 2.21 2.31 0.961 1.91 0.957 3.32-0.0129 4.48-0.637 0.757-1.09 0.806-1.86 0.201zm-7.14-24c-0.26-0.26-0.425-0.708-0.425-1.16 0-0.402-0.292-1.6-0.65-2.67-0.808-2.41-0.778-3.05 0.152-3.14 0.88-0.0854 1.55 0.794 2.17 2.83 0.815 2.7 0.838 3.51 0.119 4.23-0.447 0.447-0.854 0.42-1.36-0.0913zm-3.41-2.02c1.4 0 1.76 1.81 0.4 1.97-1.39-9e-3 -1.54-1.97-0.4-1.97zm-67.1 39.1c0.322-0.263 0.744-0.573 0.937-0.69 0.421-9.19-11.8-41.6-15.5-54.6-2.64-5.15-4.42-31.8 10.7-33.7 3.21 0.0996 6.1 0.282 6.42 0.406 0.685 0.268 0.714 0.231 0.901-1.16l0.145-1.08-3.36-0.248c-1.85-0.137-6.29-0.36-9.86-0.496-6.49-0.248-6.51-0.247-7.75 0.222-3.23 1.22-5.99 4.62-6.75 8.36-0.417 2.03-0.281 3.49 0.539 5.76 0.332 0.921 1.14 3.6 1.79 5.95 4.19 15.1 8.69 31.5 12.7 45.2 3.56 8.19 3.47 19.2 8.33 26.5 0.0724 0 0.396-0.215 0.718-0.478zm124-0.959c0.213-0.67 0.538-1.39 0.723-1.59 0.316-0.349 0.271-0.372-0.746-0.372-0.595 0-1.12 0.0717-1.18 0.159-0.116 0.198 0.534 3.03 0.694 3.02 0.0643-2e-3 0.291-0.551 0.504-1.22zm32.4-6.62c0-0.214-2.89-1.38-3.93-1.58-0.35-0.0685-15.2-0.151-32.9-0.183l-32.3-0.0581-1.38 0.532c-1.07 0.412-1.4 0.639-1.45 1.01l-0.0679 0.477h36c22 0 36-0.0767 36-0.197zm-43.4-7.11c1.61-0.19 34.2-0.13 34.2 0.0637 4.1 1.06 3.37-2.98 4.36-6.24 0.777-2.57 1.88-6.25 2.44-8.18 0.566-1.93 1.43-4.7 1.91-6.16 0.487-1.46 1.15-3.56 1.47-4.67 0.321-1.11 1.08-3.68 1.69-5.72 2.7-8.69-18.7-4.44-19.1-4.44l-19.5-0.0692c-0.752 0.495-1.64 1.13-1.87 1.92-0.544 2-0.967 3.41-4.8 16.1-0.531 1.75-1.19 3.85-1.48 4.67-0.281 0.818-1.03 3.21-1.67 5.31-1.48 2.53-1.55 7.7 2.37 7.45zm-20.9-49.6c1.72-0.573 4.33-2.2 4.69-2.92 0.158-0.312 0.41-1.09 0.561-1.73 0.454-1.93 1.58-3.77 3.12-5.13 0.569-0.498 0.658-0.738 0.784-2.12 0.146-1.6-0.0871-3.41-0.564-4.38-7.11-1.6-9.66-3.06-19-1.94-1.75 0.234-5.38 0.597-6.1 0.609-0.333 6e-3 -0.664 0.429-1.35 1.73-0.792 1.5-0.89 1.83-0.772 2.62 0.169 1.12 1.27 3.49 1.71 3.65 0.179 0.0687 0.326 0.222 0.326 0.341 4.96 4.49 9.62 11.5 16.6 9.28zm-44.1-0.434c1.74-0.745 4.69-2.97 6.61-4.98 1.58-1.66 2.1-2.37 2.99-4.18 0.645-1.3 1.17-2.71 1.3-3.5 0.21-1.22 0.184-1.43-0.327-2.76-0.305-0.792-0.627-1.55-0.716-1.69-0.114-0.179-1.51-0.272-4.77-0.319-4.14-0.362-8.04 2e-3 -11.9 0.0233-3.04 0.0136-3.81 0.0775-4.07 0.336-0.176 0.176-0.719 1.04-1.21 1.93l-0.887 1.61 0.0805 2.16c0.0729 1.96 0.152 2.31 0.856 3.79 8.61-0.137 4.98 10.1 12 7.58zm22.9-22.2c2.99-0.754 7.62-1.16 13.1-1.15 2.74 5e-3 5.65 0.0984 6.45 0.209l1.46 0.2-0.141-1.61c-0.166-1.89-0.799-5.84-1.42-8.83-1.14-5.52-2.75-9.92-4.69-12.8-1.16-1.72-4.16-4.63-6.52-6.32-2.32-1.66-2.37-1.71-2.26-2.41 0.14-0.947 0.861-2.32 1.66-3.15 1.34-1.4 4.24-2.07 6.8-1.56 2.22 0.439 4.58 1.28 5.71 2.05 0.591 0.398 1.12 0.723 1.18 0.723 0.26 0-0.241-1.72-0.91-3.11-1.18-2.48-3.9-4.51-6.91-5.17-1.77-0.389-5.5-0.173-7 0.405-3.69 1.42-5.85 4.38-6.08 8.36-0.104 1.75-0.136 1.85-0.559 1.76-0.247-0.0508-1.12-0.251-1.94-0.445-4.43-1.05-12.4-1.54-18.8-1.16-4.22 0.251-5.8 0.505-9.86 1.59-1.51 0.404-2.77 0.715-2.78 0.69-0.0184-0.0246-0.347-0.714-0.73-1.53-0.526-1.12-1.12-1.9-2.42-3.19-2.95-2.92-6.16-4.21-10.4-4.22-2.04-2e-3 -2.52 0.0705-3.82 0.577-4.1 1.6-6.6 3.78-8.37 7.29-1.14 2.25-1.4 3.5-1.4 6.65-0.0015 3.89 0.623 6.27 2.42 9.23l0.826 1.36-0.788 0.521c-0.574 0.38-1.01 0.973-1.6 2.19-0.646 1.32-2.25 5.5-2.51 6.54-0.0268 0.108 0.381 0.282 0.907 0.386 2.57 0.511 7.56 1.72 9.56 2.31 3.52 1.05 10.1 3.38 10.4 3.71 0.3 0.267 0.544 0.251 1.94-0.132 6.72-1.84 21.2-1.94 29.5-0.19 4.33 0.919 7.1 0.981 10.1 0.226zm-53.7-19.3c-0.52-0.134-1.52-2.37-1.83-4.09-0.538-2.97 0.727-7.04 2.84-9.15 1.83-1.82 5.72-3.05 8.14-2.57 1.48 0.293 3.6 1.3 4.29 2.03l0.497 0.529-0.596 1.76c-0.731 2.16-1.21 2.66-5.95 6.2-1.86 1.39-4.07 3.18-4.9 3.98-1.48 1.41-1.67 1.51-2.49 1.3zm4.48-6.83c2.03-1.82 3.47-3.41 4.98-5.51 0.738-1.02 0.762-1.1 0.386-1.31-0.976-0.522-4 0.0102-5.69 1-1.85 1.08-3.87 4.21-3.87 6 0 0.726 0.356 1.74 0.681 1.94 0.474 0.293 1.53-0.346 3.51-2.12zm67.4 0.557c1.13-0.767 1.58-1.88 1.66-4.09 0.0611-1.75 0.0157-2.01-0.531-3.08-0.479-0.936-0.795-1.27-1.59-1.66-1.41-0.7-2.97-1.08-5.08-1.24l-1.82-0.135-0.568 0.745c-0.606 0.794-0.578 1.27 0.0902 1.57 0.227 0.102 1.18 0.94 2.11 1.86 1.72 1.69 3.16 3.64 4.05 5.49 0.269 0.555 0.598 1.01 0.733 1.01 0.135 0 0.561-0.215 0.948-0.478zm42.4 19.9c-2.59-0.196-5.31-0.591-8.07-1.17-2.63-0.556-3.13-0.604-4.35-0.414-0.762 0.118-2.91 0.36-4.78 0.538-1.87 0.178-4.88 0.467-6.69 0.642-5.34 0.516-5.99 0.428-7.42-1.01-1.06-1.06-1.65-2.12-1.84-3.31-0.273-1.7 1.15-4.92 2.17-4.92 0.159 0 0.29-0.0561 0.29-0.125 0-1.24 1.41-10.5 3.21-21.1 1.6-9.41 3.46-13.7 7.8-18.2 6.48-6.65 15.4-10 25.5-9.59 5.84 0.249 10.1 1.22 14.4 3.29 3.5 1.69 6.11 3.5 8.67 6.05 3.44 3.41 5.96 7.73 7.12 12.2 0.922 3.54 0.858 10.6-0.125 13.9-2.23 7.52-7.19 14-13.8 18-3.94 2.39-7.48 3.7-12.7 4.72-1.65 0.322-7.2 0.556-9.34 0.394zm10.1-5.13c3.6-0.969 4.31-1.23 7.11-2.6 6.89-3.37 11.7-8.77 13.9-15.5 1.14-3.6 1.39-5.12 1.26-7.73-0.213-4.4-1.74-8.8-4.2-12.1-1.15-1.56-4.54-4.73-6.3-5.9-2.02-1.34-5.36-3.01-7.08-3.53-3.78-1.16-5.23-1.37-9.56-1.38-4.63-0.017-6.01 0.167-9.76 1.3-6.92 2.08-12.4 6.65-15.6 13-0.502 0.994-1.07 2.33-1.26 2.97-0.617 2.06-1.78 8.51-2.13 11.8-0.0742 0.701-0.363 2.52-0.642 4.03-0.458 2.49-0.758 4.56-1.41 9.77-0.349 2.77-0.628 3.98-1.16 5.03-0.277 0.549-0.433 1.03-0.347 1.07 0.0864 0.0397 1.59 8e-3 3.34-0.0702 1.75-0.0784 5.34-0.157 7.96-0.174 2.8-0.0183 4.65-0.107 4.46-0.214-0.175-0.101-1.66-0.398-3.29-0.661-1.64-0.263-3.06-0.56-3.17-0.66-0.113-0.102 1.29-0.178 3.19-0.174 3.54 8e-3 4.44 0.14 7.93 1.16 3.7 1.08 5.87 1.36 10.3 1.3 3.75-0.0523 4.21-0.103 6.48-0.714z" stroke="#000" stroke-width=".212"/>
<g class="logo" fill="#6d6d6d" stroke="#000" stroke-linecap="round" stroke-linejoin="round">
<path d="m163 118c-8.85 6.11-6.77 3.57-2.52 11.2" stroke-width="2.59"/>
<path d="m171 116c-12.4 4.18 2.92 12.9-10.7 16.9" stroke-width="2.59"/>
<path d="m170 119c5.69 5.77 5.42 1.61-2.13 11.8" stroke-width="2.48"/>
</g>
<g class="nameLogo" fill="none" stroke="#000" stroke-linecap="round" stroke-linejoin="round">
<path d="m154 51.1c0.232-5.6-2.73-11.2-2.36-16.8 1.33-6.31-0.697-9.46 3.62-10.6 1.12 2.74 1.3 6.82 2.25 11.7 1.36 5.45 1.84 9.96 3.81 14.4 6.11-2.51 2.21-12 1.87-15.4-0.323-3.24-1.36-8.81-1.17-11.3" stroke-width="3.51"/>
<path d="m171 22.2c-0.911 7.38-1.07 14.8-1.61 22.2-5e-3 1.2 0.0402 2.4 0.0402 3.6" stroke-width="3.46"/>
<path d="m181 27.8c-1.62 2.34-4.47 3.75-6.58 5.72-1.56 1.48-4.5 3.83-2.73 5.96 2.67 1.96 4.15 5.15 7.46 6.48 1.05 0.309 2.79 1.11 3.67 0.193" stroke-width="3.46"/>
<path d="m181 19.3c1.99 0.918 4.74 0.148 6.17 2.34 1.18 2.72-0.233 5.68-1.14 8.18-0.825 1.61 0.64 2.75 1.18 3.69-1.58 0.385-2.87 1.62-1.74 3.52 0.298 0.966-0.28-0.841 0.186 0.588 1.16 2.89 2.35 6.17 1.39 9.41-0.594 3.18-3.41 4.04-5.55 5.26-0.784 0.291-1.94 1.03-2.42-0.226" stroke-width="2.77"/>
<path d="m150 22.2c-1.87 0.918-4.46 0.148-5.8 2.34-1.11 2.72 0.219 5.68 1.07 8.18 0.776 1.61-0.602 2.75-1.11 3.69 1.49 0.385 2.7 1.62 1.64 3.52-0.281 0.966 0.263-0.841-0.175 0.588-1.1 2.89-2.21 6.17-1.3 9.41 0.558 3.18 3.21 4.04 5.22 5.26 0.738 0.291 1.82 1.03 2.28-0.226" stroke-width="2.77"/>
</g>
<g class="paw">
<g stroke="#000" stroke-width=".212px">
<path d="m136 179c-1.69 0.441-7.35 1.71-8.78 0.985-0.352-0.215-1.14-1.1-1.35-1.45-2-14.6 28.7-17.2 20.9-6.84-1.92 2.54-7.6 6.39-10.7 7.3z"/>
<path d="m132 161c-0.751-2.67 2.65-5.22 5.18-4.49 2.33 2.3-3.91 6.14-5.18 4.49z"/>
<path d="m143 162c-0.178-0.046-0.367-0.0672-0.528-0.156-2.05-2.25-1.61-5.55 2.08-4.75 2.73 1.94 0.679 5.44-1.55 4.9z"/>
<path d="m148 158c0.0349-0.0429 0.177-0.212 0.229-0.225 3.32-0.871 3.98 3.08 2.53 4.33-1.25 0.771-4.11-2.45-2.76-4.11z"/>
<path d="m161 161c-1.49 0.975-5.72 0.26-3.16-2.22 2.35-2.73 6.79 0.642 3.16 2.22"/>
<path d="m167 161c-3.31 0.485-3.34-5.26 0.0271-3.25 0.82 1.51 1.19 3-0.0271 3.25z"/>
<path d="m172 161c-3.51 0.568-3.52-3.53-0.874-4.01 2.71-0.154 2.33 3.38 0.874 4.01z"/>
</g>
<path d="m156 180c-1.19-1.69-1.41-3.34-1.09-5.38 1.01-3.42 4.09-7.79 7.26-9.39 2.1-1.11 3.57-0.0454 4.16 0.11 1.08 1.33 1.77 2.97 1.47 4.55-0.318 3.08-7.85 14-11.8 10.1z"/>
</g>
<path d="m78.3 166c-1.12-0.121-2.16-0.461-2.95-0.972-0.408-0.262-0.411-0.346-0.0449-1.45 0.558-1.68 0.453-2.98-0.339-4.19-1.16-1.76-4.6-3.82-7.2-4.29-0.873-0.159-2.76-0.303-5.97-0.456-4.05-0.192-6.25-0.472-8.71-1.11-2.77-0.714-3.87-1.22-4.88-2.25-1.4-1.43-1.73-2.57-2.15-7.64-0.471-5.58-0.893-7.92-1.88-10.5-0.895-2.3-0.986-2.94-0.951-6.79 0.0333-3.75 0.0688-4.03 0.806-6.45 0.748-2.45 2.03-6.24 2.18-6.44 0.0982-0.132 0.257-6e-3 1.39 1.1 1.4 1.37 1.79 1.66 2.25 1.68 0.6 0.022 1.25-0.736 1.18-1.38-0.0527-0.479-0.291-0.755-1.97-2.29-2.76-2.52-3.78-3.9-5.56-7.54-3.02-6.18-4.51-12.1-5.37-21.4-0.137-1.49-0.0839-8.07 0.079-9.75 0.0643-0.66 0.189-1.79 0.278-2.51l0.161-1.31 0.646 0.0054c1.65 0.0137 6.96 1.24 10.6 2.46 4.31 1.43 6.74 2.6 9.84 4.72 1.18 0.804 1.39 0.987 1.44 1.22 0.0285 0.149 0.0466 0.891 0.0402 1.65-0.0178 2.13 0.273 3.84 0.983 5.79 1.01 2.78 2.87 5.38 5.25 7.35 1.6 1.33 3.6 2.48 4.86 2.81 1.92 0.499 4.5 0.601 6.14 0.243 3.01-0.656 6.45-2.53 8.87-4.82 2.69-2.56 4.39-5.41 5.71-9.62 0.485-1.54 0.628-1.88 0.921-2.18 0.764-0.785 3.24-0.974 4.96-0.379 0.858 0.297 0.976 0.421 1.29 1.36 0.942 2.77 2.95 6.53 4.22 7.89l0.336 0.36-1.36 3e-4c-2.26 5e-4 -5.56 0.329-6.93 0.689-0.857 0.227-2.34 0.936-2.84 1.35-0.569 0.482-0.755 0.901-0.761 1.72-0.0141 1.71 0.981 3.17 2.82 4.16 0.938 0.502 1.95 0.825 3.33 1.07 0.581 0.101 1.07 0.199 1.09 0.217 0.018 0.0184 0.0632 1.39 0.1 3.04l0.0676 3.01-0.296 0.301c-0.826 0.84-1.49 1-2.38 0.583-0.725-0.345-1.07-0.283-1.25 0.224-0.225 0.629 0.329 1.45 1.15 1.71 0.575 0.178 3.97 0.179 5.06 1e-3 1.49-0.244 2.59-0.945 2.6-1.66 1e-3 -0.14-0.0782-0.336-0.176-0.435-0.16-0.163-0.25-0.176-0.881-0.129l-0.702 0.0527-0.162-0.303c-0.147-0.275-0.16-0.543-0.139-2.93 0.0123-1.44 0.057-2.86 0.0991-3.14 0.0871-0.579 6e-3 -0.535 1.46-0.794 0.408-0.0726 1.02-0.266 1.38-0.437 1.77-0.834 3.39-2.61 3.4-3.74 2e-3 -0.212 0.0196-0.386 0.0395-0.386s0.508 0.347 1.08 0.77c1.28 0.943 2.74 1.68 4.52 2.3 1.7 0.587 2.56 0.682 5.97 0.657l2.42-0.018-0.369 0.671c-1.06 1.92-3.82 5.58-5.61 7.41-0.439 0.452-1.35 1.27-2.02 1.81-1.85 1.49-3.32 2.42-6.04 3.81-2.24 1.14-2.54 1.47-2.26 2.45 0.281 0.996 0.512 1.12 3.46 1.92 4.33 1.16 6.01 1.83 8 3.18 1.69 1.15 2.75 2.48 3.55 4.47 0.633 1.59 1.02 2.31 1.42 2.68 0.188 0.173 1.02 0.662 1.85 1.09 4.95 2.53 11 6.42 11.6 7.45 0.311 0.529 0.213 0.992-1.41 6.68-0.499 1.75-0.924 3.19-0.943 3.21-0.0194 0.0177-0.36 0.0576-0.758 0.0887l-0.723 0.0566-0.0365-0.876c-0.0289-0.694-0.102-1.08-0.354-1.85-0.395-1.21-1.01-2.44-1.46-2.91-0.379-0.397-0.876-0.554-1.78-0.561l-0.53-4e-3 4e-3 -0.645c3e-3 -0.355-0.0359-0.797-0.0858-0.983-0.163-0.606-1.41-1.71-4.3-3.83-2.12-1.55-3.27-2.5-4.35-3.6-1.1-1.12-1.81-2.05-2.64-3.49-0.635-1.1-0.936-1.43-1.29-1.44-0.307-3e-3 -0.722 0.393-0.906 0.861-0.196 0.501-0.225 1.56-0.0506 1.89 0.198 0.371 2.63 3.2 3.62 4.22 1.16 1.19 2.05 1.94 3.94 3.33 2.37 1.74 2.93 2.25 3.26 2.99 0.227 0.499 0.206 0.624-0.292 1.76-0.172 0.392-0.312 0.76-0.313 0.819-5e-4 0.0587 0.198 0.306 0.44 0.549s0.441 0.485 0.441 0.537c-4.4e-4 0.0522-0.19 0.513-0.421 1.02-0.231 0.511-0.511 1.19-0.623 1.51l-0.203 0.577-0.524-0.0137c-0.288-8e-3 -0.758-0.0651-1.04-0.128-0.455-0.1-0.533-0.149-0.634-0.398-0.141-0.345-0.299-1.5-0.293-2.15 9e-3 -1.09-0.643-2.35-1.59-3.07-0.849-0.646-2.22-1.24-3.36-1.46-0.713-0.138-0.906-0.0645-1.51 0.576-0.471 0.497-0.668 0.907-0.59 1.23 0.0738 0.305 0.362 0.402 1.21 0.409 1.44 0.0121 2.21 0.381 2.71 1.31 0.348 0.64 0.525 1.37 0.663 2.72l0.104 1.02-0.627 0.0499c-1.05 0.0835-2.16 0.0658-2.42-0.0387-0.371-0.147-1.93-0.129-2.74 0.032-2.5 0.496-4.24 2.06-4.67 4.22-0.176 0.887-0.187 2.34-0.0239 3.06 0.277 1.22 1.02 2.25 1.95 2.68 1.29 0.607 3.07 0.85 6.95 0.949l3.05 0.0784-2e-3 0.295c-2e-3 0.274-0.0434 0.315-0.585 0.579-0.321 0.156-1.07 0.609-1.68 1.01l-1.09 0.723-0.533-0.317c-0.293-0.174-1.5-0.804-2.68-1.4l-2.15-1.08-2.61-0.0739c-2.74-0.0775-3.72-0.0261-5.38 0.28-0.484 0.0896-0.897 0.146-0.917 0.126-0.0199-0.0202 0.0946-0.42 0.254-0.888 0.462-1.36 0.657-2.37 0.725-3.75 0.12-2.46-0.439-4.42-1.89-6.64-0.669-1.02-2.75-3.19-3.9-4.05-1.7-1.28-3.54-2.24-5.78-3.01-1.9-0.658-2.36-0.73-4.77-0.75l-2.11-0.0176-0.0965-0.417c-0.207-0.895-0.913-1.34-3.52-2.24-2.24-0.769-6.13-1.96-7.79-2.4-1.17-0.305-1.59-0.375-2.34-0.391l-0.922-0.0197-0.391 0.424c-0.454 0.493-1.03 1.57-1.03 1.93-0.0014 0.163 0.0787 0.313 0.232 0.436 0.378 0.302 2.22 0.859 6.25 1.89 4.17 1.07 4.95 1.3 5.71 1.71 0.561 0.304 0.699 0.465 1.11 1.29 0.522 1.06 1.15 1.35 3.98 1.84 4.96 0.859 7.71 2.09 10.2 4.58 1.34 1.35 2.04 2.45 2.38 3.72 0.201 0.746 0.208 3.66 9e-3 4.23-0.205 0.583-0.941 2.08-1.02 2.08-0.0416-3.5e-4 -0.0756-0.0106-0.0757-0.0229-7.6e-5 -0.0122-0.229-0.566-0.508-1.23-0.597-1.42-1.09-2.3-1.67-3.02-0.919-1.12-2.5-2.59-3.16-2.93-0.536-0.278-0.917-0.132-0.919 0.354-9.86e-4 0.332 0.469 1.17 1.27 2.26 1.06 1.44 1.39 1.98 1.91 3.09 0.551 1.18 0.782 2.1 0.784 3.12 0.0016 1.02-0.111 1.39-0.668 2.21-0.786 1.15-2.36 2.42-3.86 3.08-0.942 0.419-1.03 0.44-1.1 0.255-0.0322-0.086-0.113-0.759-0.179-1.5-0.134-1.49-0.246-1.98-0.669-2.92-0.615-1.37-2.3-3.6-3.31-4.37-0.53-0.405-0.685-0.433-1.01-0.179-0.475 0.367-0.401 1.15 0.159 1.7 0.479 0.466 0.978 1.26 1.48 2.36 0.512 1.11 1.18 2.88 1.17 3.12-0.0029 0.343-0.484 2.71-0.667 3.28-0.23 0.717-0.668 1.25-1.31 1.59-0.59 0.315-2.03 0.819-2.92 1.02-1.17 0.268-4.42 0.381-6.01 0.21zm31.2-21.1c0.671-0.274 1.32-1.39 1.39-2.4 0.0596-0.814-0.118-1.53-0.659-2.67-0.687-1.45-1.45-2.33-2.15-2.5-0.41-0.0983-0.918 0.0823-1.04 0.37-0.142 0.336-0.01 0.713 0.631 1.79 0.583 0.983 0.76 1.52 0.753 2.3-5e-3 0.655-0.121 0.965-0.639 1.71-0.206 0.298-0.362 0.553-0.345 0.566 1.22 0.962 1.49 1.07 2.06 0.836zm-6.99-24.3c0.758-0.745 0.761-1.54 0.0185-4.07-0.668-2.27-1.35-3.22-2.32-3.23-0.424-4e-3 -0.773 0.218-0.891 0.564-0.138 0.408-0.0226 1.06 0.467 2.62 0.433 1.38 0.732 2.61 0.729 3-2e-3 0.402 0.332 1.01 0.688 1.26 0.496 0.343 0.849 0.303 1.31-0.148zm-3.9-0.273c0.662-0.396 0.533-1.48-0.223-1.88-0.833-0.434-1.6-0.0797-1.61 0.74-0.0019 0.226 0.0576 0.532 0.132 0.68 0.292 0.576 1.13 0.799 1.7 0.455z" fill="none"/>
<g fill="#ca78ff">
<path d="m78.3 166c-1.12-0.121-2.16-0.461-2.95-0.972-0.408-0.262-0.411-0.346-0.0449-1.45 0.558-1.68 0.453-2.98-0.339-4.19-1.16-1.76-4.6-3.82-7.2-4.29-0.873-0.159-2.76-0.303-5.97-0.456-4.05-0.192-6.25-0.472-8.71-1.11-2.77-0.714-3.87-1.22-4.88-2.25-1.4-1.43-1.73-2.57-2.15-7.64-0.471-5.58-0.893-7.92-1.88-10.5-0.895-2.3-0.986-2.94-0.951-6.79 0.0333-3.75 0.0688-4.03 0.806-6.45 0.748-2.45 2.03-6.24 2.18-6.44 0.0982-0.132 0.257-6e-3 1.39 1.1 1.4 1.37 1.79 1.66 2.25 1.68 0.6 0.022 1.25-0.736 1.18-1.38-0.0527-0.479-0.291-0.755-1.97-2.29-2.76-2.52-3.78-3.9-5.56-7.54-3.02-6.18-4.51-12.1-5.37-21.4-0.137-1.49-0.0839-8.07 0.079-9.75 0.0643-0.66 0.189-1.79 0.278-2.51l0.161-1.31 0.646 0.0054c1.65 0.0137 6.96 1.24 10.6 2.46 4.31 1.43 6.74 2.6 9.84 4.72 1.18 0.804 1.39 0.987 1.44 1.22 0.0285 0.149 0.0466 0.891 0.0402 1.65-0.0178 2.13 0.273 3.84 0.983 5.79 1.01 2.78 2.87 5.38 5.25 7.35 1.6 1.33 3.6 2.48 4.86 2.81 1.92 0.499 4.5 0.601 6.14 0.243 3.01-0.656 6.45-2.53 8.87-4.82 2.69-2.56 4.39-5.41 5.71-9.62 0.485-1.54 0.628-1.88 0.921-2.18 0.764-0.785 3.24-0.974 4.96-0.379 0.858 0.297 0.976 0.421 1.29 1.36 0.942 2.77 2.95 6.53 4.22 7.89l0.336 0.36-1.36 3e-4c-2.26 5e-4 -5.56 0.329-6.93 0.689-0.857 0.227-2.34 0.936-2.84 1.35-0.569 0.482-0.755 0.901-0.761 1.72-0.0141 1.71 0.981 3.17 2.82 4.16 0.938 0.502 1.95 0.825 3.33 1.07 0.581 0.101 1.07 0.199 1.09 0.217 0.018 0.0184 0.0632 1.39 0.1 3.04l0.0676 3.01-0.296 0.301c-0.826 0.84-1.49 1-2.38 0.583-0.725-0.345-1.07-0.283-1.25 0.224-0.225 0.629 0.329 1.45 1.15 1.71 0.575 0.178 3.97 0.179 5.06 1e-3 1.49-0.244 2.59-0.945 2.6-1.66 1e-3 -0.14-0.0782-0.336-0.176-0.435-0.16-0.163-0.25-0.176-0.881-0.129l-0.702 0.0527-0.162-0.303c-0.147-0.275-0.16-0.543-0.139-2.93 0.0123-1.44 0.057-2.86 0.0991-3.14 0.0871-0.579 6e-3 -0.535 1.46-0.794 0.408-0.0726 1.02-0.266 1.38-0.437 1.77-0.834 3.39-2.61 3.4-3.74 2e-3 -0.212 0.0196-0.386 0.0395-0.386s0.508 0.347 1.08 0.77c1.28 0.943 2.74 1.68 4.52 2.3 1.7 0.587 2.56 0.682 5.97 0.657l2.42-0.018-0.369 0.671c-1.06 1.92-3.82 5.58-5.61 7.41-0.439 0.452-1.35 1.27-2.02 1.81-1.85 1.49-3.32 2.42-6.04 3.81-2.24 1.14-2.54 1.47-2.26 2.45 0.281 0.996 0.512 1.12 3.46 1.92 4.33 1.16 6.01 1.83 8 3.18 1.69 1.15 2.75 2.48 3.55 4.47 0.633 1.59 1.02 2.31 1.42 2.68 0.188 0.173 1.02 0.662 1.85 1.09 4.95 2.53 11 6.42 11.6 7.45 0.311 0.529 0.213 0.992-1.41 6.68-0.499 1.75-0.924 3.19-0.943 3.21-0.0194 0.0177-0.36 0.0576-0.758 0.0887l-0.723 0.0566-0.0365-0.876c-0.0289-0.694-0.102-1.08-0.354-1.85-0.395-1.21-1.01-2.44-1.46-2.91-0.379-0.397-0.876-0.554-1.78-0.561l-0.53-4e-3 4e-3 -0.645c3e-3 -0.355-0.0359-0.797-0.0858-0.983-0.163-0.606-1.41-1.71-4.3-3.83-2.12-1.55-3.27-2.5-4.35-3.6-1.1-1.12-1.81-2.05-2.64-3.49-0.635-1.1-0.936-1.43-1.29-1.44-0.307-3e-3 -0.722 0.393-0.906 0.861-0.196 0.501-0.225 1.56-0.0506 1.89 0.198 0.371 2.63 3.2 3.62 4.22 1.16 1.19 2.05 1.94 3.94 3.33 2.37 1.74 2.93 2.25 3.26 2.99 0.227 0.499 0.206 0.624-0.292 1.76-0.172 0.392-0.312 0.76-0.313 0.819-5e-4 0.0587 0.198 0.306 0.44 0.549s0.441 0.485 0.441 0.537c-4.4e-4 0.0522-0.19 0.513-0.421 1.02-0.231 0.511-0.511 1.19-0.623 1.51l-0.203 0.577-0.524-0.0137c-0.288-8e-3 -0.758-0.0651-1.04-0.128-0.455-0.1-0.533-0.149-0.634-0.398-0.141-0.345-0.299-1.5-0.293-2.15 9e-3 -1.09-0.643-2.35-1.59-3.07-0.849-0.646-2.22-1.24-3.36-1.46-0.713-0.138-0.906-0.0645-1.51 0.576-0.471 0.497-0.668 0.907-0.59 1.23 0.0738 0.305 0.362 0.402 1.21 0.409 1.44 0.0121 2.21 0.381 2.71 1.31 0.348 0.64 0.525 1.37 0.663 2.72l0.104 1.02-0.627 0.0499c-1.05 0.0835-2.16 0.0658-2.42-0.0387-0.371-0.147-1.93-0.129-2.74 0.032-2.5 0.496-4.24 2.06-4.67 4.22-0.176 0.887-0.187 2.34-0.0239 3.06 0.277 1.22 1.02 2.25 1.95 2.68 1.29 0.607 3.07 0.85 6.95 0.949l3.05 0.0784-2e-3 0.295c-2e-3 0.274-0.0434 0.315-0.585 0.579-0.321 0.156-1.07 0.609-1.68 1.01l-1.09 0.723-0.533-0.317c-0.293-0.174-1.5-0.804-2.68-1.4l-2.15-1.08-2.61-0.0739c-2.74-0.0775-3.72-0.0261-5.38 0.28-0.484 0.0896-0.897 0.146-0.917 0.126-0.0199-0.0202 0.0946-0.42 0.254-0.888 0.462-1.36 0.657-2.37 0.725-3.75 0.12-2.46-0.439-4.42-1.89-6.64-0.669-1.02-2.75-3.19-3.9-4.05-1.7-1.28-3.54-2.24-5.78-3.01-1.9-0.658-2.36-0.73-4.77-0.75l-2.11-0.0176-0.0965-0.417c-0.207-0.895-0.913-1.34-3.52-2.24-2.24-0.769-6.13-1.96-7.79-2.4-1.17-0.305-1.59-0.375-2.34-0.391l-0.922-0.0197-0.391 0.424c-0.454 0.493-1.03 1.57-1.03 1.93-0.0014 0.163 0.0787 0.313 0.232 0.436 0.378 0.302 2.22 0.859 6.25 1.89 4.17 1.07 4.95 1.3 5.71 1.71 0.561 0.304 0.699 0.465 1.11 1.29 0.522 1.06 1.15 1.35 3.98 1.84 4.96 0.859 7.71 2.09 10.2 4.58 1.34 1.35 2.04 2.45 2.38 3.72 0.201 0.746 0.208 3.66 9e-3 4.23-0.205 0.583-0.941 2.08-1.02 2.08-0.0416-3.5e-4 -0.0756-0.0106-0.0757-0.0229-7.6e-5 -0.0122-0.229-0.566-0.508-1.23-0.597-1.42-1.09-2.3-1.67-3.02-0.919-1.12-2.5-2.59-3.16-2.93-0.536-0.278-0.917-0.132-0.919 0.354-9.86e-4 0.332 0.469 1.17 1.27 2.26 1.06 1.44 1.39 1.98 1.91 3.09 0.551 1.18 0.782 2.1 0.784 3.12 0.0016 1.02-0.111 1.39-0.668 2.21-0.786 1.15-2.36 2.42-3.86 3.08-0.942 0.419-1.03 0.44-1.1 0.255-0.0322-0.086-0.113-0.759-0.179-1.5-0.134-1.49-0.246-1.98-0.669-2.92-0.615-1.37-2.3-3.6-3.31-4.37-0.53-0.405-0.685-0.433-1.01-0.179-0.475 0.367-0.401 1.15 0.159 1.7 0.479 0.466 0.978 1.26 1.48 2.36 0.512 1.11 1.18 2.88 1.17 3.12-0.0029 0.343-0.484 2.71-0.667 3.28-0.23 0.717-0.668 1.25-1.31 1.59-0.59 0.315-2.03 0.819-2.92 1.02-1.17 0.268-4.42 0.381-6.01 0.21zm31.2-21.1c0.671-0.274 1.32-1.39 1.39-2.4 0.0596-0.814-0.118-1.53-0.659-2.67-0.687-1.45-1.45-2.33-2.15-2.5-0.41-0.0983-0.918 0.0823-1.04 0.37-0.142 0.336-0.01 0.713 0.631 1.79 0.583 0.983 0.76 1.52 0.753 2.3-5e-3 0.655-0.121 0.965-0.639 1.71-0.206 0.298-0.362 0.553-0.345 0.566 1.22 0.962 1.49 1.07 2.06 0.836zm-6.99-24.3c0.758-0.745 0.761-1.54 0.0185-4.07-0.668-2.27-1.35-3.22-2.32-3.23-0.424-4e-3 -0.773 0.218-0.891 0.564-0.138 0.408-0.0226 1.06 0.467 2.62 0.433 1.38 0.732 2.61 0.729 3-2e-3 0.402 0.332 1.01 0.688 1.26 0.496 0.343 0.849 0.303 1.31-0.148zm-3.9-0.273c0.662-0.396 0.533-1.48-0.223-1.88-0.833-0.434-1.6-0.0797-1.61 0.74-0.0019 0.226 0.0576 0.532 0.132 0.68 0.292 0.576 1.13 0.799 1.7 0.455z"/>
<path d="m99.1 187c-1.23-0.104-1.36-0.143-2.7-0.829-0.789-0.404-2.26-1.34-3.35-2.14-4.24-3.09-5.91-4.09-7.83-4.68-0.506-0.154-2.17-0.225-8.62-0.364-4.4-0.095-8.22-0.208-8.5-0.252-0.277-0.0435-1.75-0.234-3.27-0.424-4.28-0.533-5.85-0.418-7.85 0.576-0.369 0.183-0.714 0.315-0.767 0.293-0.0527-0.0217-0.776-0.952-1.61-2.07s-2.02-2.68-2.64-3.48c-1.06-1.37-1.11-1.46-0.839-1.54 0.157-0.0472 2.86-0.122 6.01-0.166 6.3-0.0884 7.55-0.199 9.56-0.842 1.85-0.594 4.36-2.2 5.86-3.74l0.715-0.738 0.923 0.464c2.71 1.36 7.25 1.71 10.9 0.844 1.57-0.37 4.52-1.37 6.6-2.24 2.6-1.09 4.41-2.07 7.55-4.1 3.14-2.03 3.74-2.33 5.49-2.73 2.33-0.535 6-0.599 7.47-0.13 0.73 0.232 1.9 0.988 2.94 1.91 1.12 0.983 1.12 0.999 0.237 2.3-0.916 1.34-1.32 2.25-1.41 3.18-0.0582 0.591-0.0297 0.734 0.185 0.931 0.357 0.328 0.802 0.231 1.02-0.222 0.101-0.207 1.42-1.65 2.94-3.2 1.52-1.55 2.86-3 2.98-3.21l0.228-0.379 1.77 0.0259c2.75 0.0401 4.55-0.354 7.12-1.55 1.77-0.83 3.6-2 4.76-3.05l0.879-0.798 13.6 0.114 0.718 0.36c0.861 0.432 1.5 1.15 1.86 2.11 0.353 0.921 0.363 3.09 0.0209 4.67-0.396 1.83-1.34 4.37-2.47 6.64-1.04 2.09-1.35 2.56-1.08 1.63 0.427-1.44-0.151-2.65-1.64-3.42-1.19-0.617-2.18-0.806-4.3-0.819-6.64-0.0404-13.2 3.26-15.5 7.8-0.68 1.33-1.09 3.43-0.937 4.83 0.0767 0.713 0.134 0.823 0.805 1.55l0.722 0.782 1.11 0.0549c1.25 0.0616 2.65-0.0881 4.95-0.529 3.37-0.645 5.08-1.34 8-3.24 2.06-1.34 3.01-2.08 4.38-3.39 0.576-0.554 1.05-0.964 1.05-0.912-1e-3 0.138-1.69 2.44-2.44 3.33-1 1.18-1.91 2.03-3.18 2.97-2.13 1.57-3.38 2.11-7.61 3.28-9.53 2.65-15.4 3.86-21.9 4.49-2.07 0.203-10.8 0.248-12.9 0.0669zm45.7-25.4c0.34-0.231 0.655-0.604 0.881-1.04 0.623-1.2 0.416-2.47-0.559-3.41-0.422-0.409-0.526-0.446-1.36-0.491-0.754-0.0407-1-5.2e-4 -1.48 0.237-0.805 0.405-1.18 1.14-1.11 2.17 0.0748 1.16 0.958 2.74 1.61 2.89 0.661 0.149 1.49 2e-3 2.02-0.357zm6.34 0.225c0.456-0.493 0.595-0.887 0.607-1.73 0.0142-1.03-0.326-1.84-0.98-2.35-0.4-0.311-0.613-0.375-1.39-0.421-0.884-0.0521-0.935-0.0394-1.3 0.324-0.341 0.335-0.385 0.462-0.391 1.12-4e-3 0.535 0.0786 0.914 0.3 1.37 0.763 1.56 2.44 2.46 3.16 1.68zm-15.9-0.53c0.584-0.272 1.23-0.704 1.69-1.14 1.23-1.15 1.57-2.2 0.999-3.07-0.371-0.56-0.914-0.704-1.96-0.523-2.18 0.377-3.82 2.03-3.86 3.87-0.0199 1.12 0.336 1.44 1.51 1.35 0.419-0.0305 1.03-0.215 1.61-0.486z"/>
<path d="m138 187c0.552-0.205 2.7-1.57 4.09-2.61 4.5-3.34 6.7-5.98 9.1-10.9 1.11-2.28 1.98-4.55 2.89-7.61 1.21-4.04 1.59-4.87 4.08-8.88 0.612-0.985 1.21-1.99 1.33-2.23l0.215-0.442 4.47 0.09c3.77 0.0759 4.59 0.125 5.23 0.316 1.57 0.47 2.7 1.27 3.2 2.27 0.32 0.633 0.308 0.647-0.233 0.271-0.405-0.282-0.575-0.321-1.24-0.285-1.31 0.0704-2.11 0.94-2.13 2.31-9e-3 0.703 0.209 1.13 0.818 1.59 0.742 0.563 2.19 0.522 2.71-0.0779 0.408-0.465 0.372-0.164-0.168 1.41-0.78 2.27-2.13 4.85-4.44 8.48-0.562 0.882-1.04 1.58-1.07 1.55-0.0282-0.0287 0.135-0.498 0.362-1.04 0.351-0.839 0.416-1.15 0.429-2.06 0.0182-1.26-0.204-2.03-0.918-3.15-0.387-0.61-0.614-0.828-1.09-1.04-0.739-0.332-2.2-0.464-2.88-0.258-2.26 0.693-5.37 3.87-7.09 7.24-0.907 1.78-1.12 2.53-1.13 3.96-0.0111 1.43 0.256 2.52 0.854 3.48 0.464 0.746 0.968 1.11 1.8 1.29 0.581 0.127 0.783 0.112 1.55-0.115 1.25-0.372 2.32-1.11 3.89-2.67 0.751-0.748 1.36-1.33 1.36-1.29-9.3e-4 0.111-2.4 3.88-2.6 4.08-0.328 0.333-2.76 1.77-4.25 2.51-1.57 0.78-3.99 1.74-5.66 2.24-3.69 1.12-6.98 1.6-11.6 1.69-2.12 0.0409-2.34 0.0269-1.94-0.124zm23-25.6c1.76-0.762 2.15-1.96 0.984-3-0.739-0.66-2.06-0.845-3.02-0.422-0.914 0.406-1.95 1.63-1.96 2.3-5e-3 0.497 0.187 0.806 0.655 1.06 0.902 0.483 2.31 0.511 3.34 0.0665zm6.66-0.239c0.296-0.25 0.348-0.387 0.342-0.91-7e-3 -0.697-0.437-1.98-0.781-2.33-0.332-0.337-1.22-0.556-1.75-0.43-1.49 0.356-1.29 3.06 0.279 3.77 0.626 0.285 1.5 0.237 1.91-0.104z"/>
</g>
<g fill="#9b00ff">
<path d="m59.6 70.2c-0.379-0.196-2.72-1.05-5.21-1.91-4.57-1.57-7.82-2.48-12.5-3.51-1.3-0.286-2.4-0.546-2.43-0.579-0.0787-0.08 0.233-0.986 1.19-3.46 1.42-3.66 1.96-4.61 3.01-5.27 0.345-0.217 0.627-0.442 0.627-0.5 4.84e-4 -0.058-0.299-0.607-0.665-1.22-2.12-3.55-2.62-5.59-2.48-10.2 0.0932-3.05 0.181-3.47 1.14-5.44 1.75-3.61 4.15-5.81 8.07-7.41 1.53-0.624 2.18-0.74 4.02-0.725 3.33 0.0278 5.76 0.723 8.23 2.35 0.448 0.295 1.52 1.26 2.38 2.13 1.44 1.47 1.62 1.71 2.28 3.02 0.394 0.782 0.756 1.42 0.804 1.42 0.0476 4.29e-4 1.36-0.325 2.92-0.724 5.67-1.45 7.45-1.63 15.1-1.57 4.43 0.0353 5.98 0.093 7.74 0.288 2.27 0.251 4.95 0.7 6.75 1.13 1.39 0.333 1.42 0.31 1.58-1.37 0.179-1.91 0.462-3.01 1.09-4.24 0.895-1.75 2.25-3.04 4.19-3.99 1.36-0.669 2.77-0.896 5.4-0.871 2.12 0.0199 2.96 0.208 4.67 1.05 1.98 0.977 3.5 2.44 4.37 4.19 0.39 0.787 0.976 2.52 0.883 2.61-0.042 0.0413-0.348-0.102-0.679-0.319-1.89-1.24-5.48-2.33-7.73-2.35-2.19-0.0222-4.26 0.7-5.31 1.85-0.75 0.821-1.5 2.3-1.59 3.13-0.0599 0.573-0.0303 0.676 0.293 1.02 0.198 0.211 0.915 0.787 1.59 1.28 2.65 1.93 5.35 4.48 6.71 6.35 1.86 2.55 3.65 7.29 4.78 12.7 0.711 3.38 1.57 8.97 1.56 10.1-3e-3 0.323-0.0114 0.326-0.663 0.227-1.37-0.209-7.46-0.332-10.4-0.21-4.77 0.201-6.42 0.402-10.8 1.32-0.964 0.2-1.69 0.258-3.09 0.247-1.98-0.0159-2.92-0.129-5.91-0.707-8.81-1.71-21.9-1.64-29.2 0.143-0.798 0.194-1.56 0.344-1.7 0.333-0.138-0.0113-0.562-0.181-0.941-0.378zm-10.6-18.9c0.217-0.11 0.799-0.575 1.29-1.03 1.2-1.11 3.32-2.83 6.09-4.93 2.63-1.99 3.95-3.23 4.41-4.13 0.18-0.348 0.537-1.22 0.793-1.94l0.466-1.3-0.534-0.558c-0.616-0.644-2.6-1.69-3.81-2.01-1.89-0.494-4.47-0.12-6.72 0.971-1.74 0.842-2.91 2.01-3.8 3.8-0.927 1.86-1.32 3.42-1.34 5.32-0.0153 1.28 0.0314 1.68 0.305 2.62 0.358 1.23 1.04 2.7 1.39 3.01 0.461 0.408 0.89 0.459 1.46 0.171z"/>
<path d="m77.9 166c-0.581-0.0944-1.42-0.356-1.86-0.581-0.913-0.463-0.951-0.644-0.525-2.49 0.307-1.33 0.138-2.4-0.544-3.45-0.956-1.47-3.64-3.21-6.21-4.03-0.963-0.306-2.2-0.446-6.21-0.702-5.77-0.368-6.94-0.517-9.73-1.25-2.47-0.645-3.62-1.2-4.61-2.21-1.35-1.37-1.62-2.31-2.09-7.18-0.638-6.6-0.786-7.41-2-11l-0.823-2.41 0.0349-4.18c0.034-4.07 0.0486-4.23 0.552-5.87 0.741-2.42 2.11-6.44 2.27-6.69 0.0968-0.147 0.601 0.204 1.62 1.13 1.11 1.01 1.6 1.34 1.99 1.34 0.68 6e-3 1.23-0.559 1.23-1.27 0.0042-0.499-0.294-0.868-2.35-2.91-2.49-2.47-3.24-3.47-4.67-6.2-3.01-5.76-4.73-12-5.63-20.4-0.298-2.77-0.252-10.5 0.079-13.3l0.221-1.87 1.16 0.0245c1.39 0.0294 4.09 0.594 7.61 1.59 5.01 1.42 8.61 3 11.8 5.2l1.77 1.21 0.0924 2.23c0.0508 1.22 0.229 2.79 0.397 3.47 1.15 4.72 4.31 8.8 8.72 11.3 1.56 0.871 3.21 1.25 5.6 1.27 2.39 0.0247 3.63-0.26 6.09-1.4 5.53-2.57 8.76-6.34 11.1-12.9 0.425-1.21 0.915-2.35 1.09-2.52 0.499-0.491 1.72-0.726 3.14-0.608 1.71 0.141 2.51 0.557 2.84 1.48 0.972 2.68 2.54 5.74 3.8 7.44l0.613 0.823-2.71 0.0947c-3.58 0.125-5.22 0.424-6.89 1.25-1.68 0.831-2.03 1.29-2.03 2.6 0.0016 2.47 2 4.27 5.63 5.07 1.72 0.38 1.63 0.156 1.65 3.87 0.0151 2.68-0.0141 2.77-1.05 3.25-0.59 0.274-0.69 0.274-1.39 2.1e-4 -0.884-0.346-1.3-0.241-1.46 0.366-0.131 0.506 0.332 1.26 1.01 1.63 0.54 0.299 5.29 0.222 6.21-0.101 0.944-0.33 1.6-0.839 1.73-1.35 0.159-0.612-0.289-0.948-1.1-0.824-0.533 0.082-0.625 0.0363-0.783-0.388-0.196-0.529-0.212-4.21-0.0242-5.5l0.119-0.817 1-0.198c1.81-0.359 3.43-1.38 4.53-2.87 0.28-0.38 0.511-0.878 0.513-1.11 2e-3 -0.23 0.058-0.418 0.125-0.417 0.0666 5.56e-4 0.605 0.322 1.2 0.714 1.5 0.993 3.6 1.95 5.19 2.38 1.08 0.285 1.96 0.363 4.36 0.383l3 0.0251-0.213 0.399c-0.482 0.902-2.46 3.69-3.69 5.21-2.88 3.53-5.02 5.22-10.2 8.06-1.01 0.548-1.92 1.16-2.03 1.37-0.288 0.527 0.0736 1.67 0.651 2.05 0.25 0.167 1.84 0.698 3.53 1.18 4.84 1.38 6.87 2.36 8.7 4.22 0.886 0.898 1.27 1.5 2.13 3.32 0.576 1.23 1.2 2.36 1.38 2.53s1.57 0.969 3.08 1.79c4.11 2.22 7.89 4.59 9.7 6.09 0.67 0.553 0.751 0.702 0.745 1.37-5e-3 0.64-0.935 4.22-2.11 8.14l-0.31 1.03-1.3-0.12-0.1-1.07c-0.134-1.43-0.925-3.36-1.73-4.22-0.574-0.614-0.749-0.697-1.48-0.703l-0.829-7e-3 6e-3 -0.777c0.0103-1.24-0.166-1.42-4.5-4.77-3.54-2.73-5.14-4.33-6.66-6.65-1.21-1.85-1.6-2.1-2.24-1.43-0.439 0.463-0.666 1.67-0.433 2.29 0.189 0.507 2.24 2.93 3.92 4.64 0.621 0.631 2.21 1.97 3.52 2.98 2.51 1.93 3.54 2.94 3.54 3.49-1e-3 0.179-0.178 0.739-0.393 1.24l-0.39 0.918 0.954 1.01-1.27 2.98-0.817-0.0183c-0.465-0.0104-0.928-0.131-1.07-0.281-0.156-0.158-0.315-0.875-0.402-1.81-0.228-2.45-1.04-3.51-3.49-4.54-0.573-0.241-1.41-0.441-1.86-0.447-0.706-9e-3 -0.897 0.068-1.28 0.518-0.949 1.11-0.774 1.77 0.468 1.79 2.26 0.0219 3.19 1.13 3.53 4.2l0.0979 0.874-2.31-0.13c-3.61-0.203-5.54 0.321-6.94 1.89-0.955 1.07-1.28 2.08-1.3 4.01-0.0146 1.74 0.234 2.59 1 3.41 1.15 1.24 2.55 1.56 7.45 1.73 1.98 0.0698 3.6 0.195 3.6 0.279-7e-4 0.0834-0.344 0.361-0.762 0.618s-1.16 0.727-1.66 1.05l-0.897 0.579-5.31-2.76-3.47-0.0286c-2.11-0.0174-3.81 0.0528-4.34 0.179-0.479 0.114-0.909 0.169-0.956 0.121-0.0466-0.0474 0.05-0.47 0.215-0.939 0.165-0.469 0.4-1.59 0.522-2.5 0.324-2.39 0.0612-4.06-0.988-6.26-0.713-1.5-1.04-1.93-2.69-3.61-2.1-2.14-3.72-3.26-6.3-4.34-2.52-1.06-3.42-1.25-6.09-1.27-2.15-0.0179-2.37-0.0488-2.36-0.336 0.0083-0.996-1.23-1.68-5.63-3.1-4.99-1.61-6.81-2.06-8.16-2.01l-1.21 0.0427-0.594 0.974c-0.326 0.536-0.572 1.13-0.546 1.33 0.0748 0.564 0.956 0.888 6.17 2.28 2.69 0.714 5.24 1.48 5.68 1.7 0.54 0.273 0.968 0.677 1.32 1.25 0.704 1.14 1.36 1.43 4.76 2.12 3.03 0.616 5.34 1.41 6.97 2.4 1.36 0.822 3.74 3.25 4.39 4.47 0.484 0.911 0.525 1.14 0.56 3.12 0.0365 2.06 0.018 2.18-0.493 3.2l-0.531 1.06-0.204-0.536c-0.621-1.63-1.56-3.25-2.49-4.28-1.33-1.48-2.67-2.49-3.2-2.42-0.862 0.115-0.607 0.778 1.5 3.91 1.76 2.61 2.39 5.28 1.6 6.74-0.483 0.885-1.52 1.94-2.64 2.68-0.916 0.611-2.32 1.3-2.42 1.18-0.0227-0.026-0.129-0.76-0.236-1.63-0.107-0.871-0.334-1.96-0.504-2.42-0.585-1.58-2.74-4.42-3.75-4.96-0.483-0.255-0.557-0.252-0.87 0.0263-0.524 0.466-0.422 0.959 0.443 2.13 0.435 0.589 1.15 1.95 1.6 3.01l0.804 1.94-0.306 1.6c-0.443 2.31-0.769 2.84-2.15 3.48-0.625 0.292-1.65 0.642-2.28 0.777-1.47 0.317-5.11 0.441-6.47 0.22zm32.1-21.3c0.631-0.568 1.02-1.76 0.895-2.75-0.22-1.72-1.65-4.11-2.7-4.53-0.595-0.238-1.29 0.0788-1.3 0.589-2e-3 0.23 0.312 1.04 0.697 1.8 0.836 1.65 0.874 2.32 0.201 3.53l-0.489 0.882 0.435 0.352c0.939 0.761 1.51 0.793 2.26 0.125zm-7.43-23.9c0.595-0.623 0.659-1.46 0.242-3.16-0.767-3.12-1.91-4.66-3.08-4.14-0.718 0.32-0.73 0.887-0.0694 3.28 0.334 1.21 0.653 2.49 0.71 2.84 0.229 1.44 1.37 2.05 2.2 1.17zm-3.76-0.36c0.307-0.25 0.29-1.05-0.0311-1.51-0.324-0.47-1.18-0.69-1.68-0.429-0.271 0.142-0.369 0.367-0.371 0.854-0.0032 0.744 0.101 0.959 0.61 1.26 0.374 0.221 1.09 0.137 1.47-0.171z"/>
<path d="m98 187c-0.973-0.259-3.24-1.61-6.09-3.63-2.85-2.02-4.82-3.2-6.2-3.71-0.658-0.243-2.22-0.334-9.07-0.529-6.18-0.176-9.06-0.332-11.4-0.616-4.67-0.57-6.07-0.503-8.15 0.391l-0.935 0.403-2.06-2.72c-1.13-1.5-2.3-3.02-2.59-3.39-0.288-0.37-0.489-0.707-0.446-0.749 0.0431-0.0423 2.75-0.141 6.01-0.219 6.54-0.157 7.86-0.28 9.69-0.897 1.59-0.538 3.98-2.01 5.37-3.31l1.09-1.02 1.26 0.532c1.67 0.703 2.81 0.943 5.17 1.08 2.63 0.157 4.58-0.116 7.62-1.07 4.55-1.42 7.63-2.9 12.4-5.93 1.18-0.754 2.63-1.59 3.22-1.86 1.57-0.718 3.98-1.06 6.77-0.955 2.6 0.0961 3.02 0.242 4.93 1.73 1.47 1.15 1.48 1.2 0.543 2.74-1.35 2.22-1.67 3.89-0.788 4.18 0.307 0.1 0.518-0.0157 1.01-0.558 0.343-0.377 1.65-1.76 2.9-3.08 1.25-1.32 2.46-2.64 2.68-2.94l0.41-0.545 2.43-0.0761c1.42-0.0444 2.88-0.196 3.5-0.363 2.34-0.626 5.88-2.54 7.72-4.18l0.923-0.822 6.7 0.0559c6.24 0.0521 6.75 0.0795 7.36 0.401 1.62 0.849 2.18 2.02 2.15 4.46-0.0311 2.51-1.04 5.78-2.84 9.22l-0.622 1.19-3e-3 -0.801c-0.01-2.44-3.08-3.72-7.88-3.27-7.64 0.713-13.7 4.93-14.6 10.2-0.125 0.704-0.195 1.71-0.155 2.24 0.0633 0.849 0.165 1.06 0.851 1.78l0.779 0.817 2.14-0.0713c3.29-0.11 6.73-0.898 9.21-2.11 1.55-0.76 4.69-2.83 5.86-3.87 0.514-0.455 0.98-0.781 1.04-0.725 0.15 0.153-1.49 2.18-2.72 3.36-1.47 1.41-3.86 2.95-5.58 3.59-3.3 1.23-13.4 3.76-18.6 4.68-5.53 0.972-6.57 1.05-13.7 1.06-3.67 5e-3 -6.93-0.0571-7.23-0.139zm52.9-24.7c0.842-0.442 1.12-2.2 0.546-3.49-0.404-0.91-1.1-1.31-2.27-1.32-0.691-6e-3 -0.952 0.081-1.28 0.426-0.935 0.978-0.0558 3.33 1.56 4.16 0.905 0.467 0.965 0.476 1.45 0.22zm-15.6-0.749c1.13-0.54 2.48-1.84 2.76-2.67 0.419-1.24-0.222-2.19-1.47-2.21-2.39-0.0199-4.57 1.88-4.6 4.01-0.015 1.11 0.473 1.55 1.56 1.41 0.454-0.0579 1.24-0.305 1.75-0.549zm9.4 0.353c1.12-0.68 1.59-2.32 1.04-3.6-0.418-0.967-0.921-1.34-2.01-1.5-0.947-0.138-1.97 0.254-2.42 0.924-0.609 0.913-0.217 3.07 0.764 4.2 0.389 0.45 1.87 0.435 2.63-0.0254z"/>
<path d="m140 186c5.42-3.59 8.19-6.58 10.7-11.6 1.21-2.38 2.03-4.48 3.66-9.41 0.816-2.47 1.37-3.81 2.06-4.99 0.52-0.889 1.43-2.46 2.03-3.49l1.08-1.88 2.76 0.0308c1.52 0.0169 3.69 0.0953 4.82 0.174 1.83 0.127 2.2 0.211 3.24 0.733 1.06 0.532 1.89 1.27 1.89 1.67-6.9e-4 0.0823-0.201 0.0718-0.445-0.0233-1.04-0.407-2.45 0.25-2.88 1.34-0.534 1.36-1.2e-4 2.52 1.35 2.92 0.634 0.19 1.52 0.0913 1.9-0.211 0.946-0.749-1.32 4.31-3.69 8.22-1.13 1.87-1.56 2.36-1.15 1.32 0.245-0.628 0.25-2.14 0.01-3.04-0.105-0.39-0.438-1.09-0.741-1.57-0.713-1.11-1.55-1.46-3.28-1.38-1.07 0.0516-1.37 0.148-2.29 0.74-2.22 1.44-4.81 4.59-6.03 7.36-1.05 2.38-0.939 5.28 0.258 6.89 1.35 1.82 3.85 1.44 6.55-0.987 0.654-0.589 1.19-1 1.18-0.923-3e-3 0.0821-0.47 0.819-1.04 1.64-0.889 1.28-1.21 1.6-2.35 2.26-5.81 3.42-11.8 5.14-18.7 5.35l-2.85 0.0891zm20.9-24.4c1.57-0.773 1.98-1.93 1.03-2.89-0.59-0.6-1.78-0.976-2.57-0.815-1.86 0.376-3.32 2.58-2.32 3.5 0.722 0.665 2.71 0.77 3.86 0.205zm6.63-0.205c0.368-0.3 0.228-2.06-0.227-2.86-0.441-0.775-1.57-1.18-2.31-0.833-0.951 0.446-1.13 2.28-0.319 3.21 0.712 0.813 2.15 1.06 2.85 0.49z"/>
</g>
<g fill="#00ffa8">
<path d="m76 92.8c-0.706-0.152-1.67-1.35-2.58-3.2-1.52-3.09-2.98-4.27-5.81-4.67-0.778-0.111-0.885-0.184-1.13-0.779-0.152-0.361-0.346-1.59-0.431-2.73l-0.156-2.07 0.775-1.43c0.426-0.784 0.951-1.64 1.17-1.91l0.392-0.483 6.31-0.122c3.84-0.0743 7.77-0.0481 10 0.067l3.74 0.189 0.525 1.07c0.457 0.932 0.522 1.26 0.503 2.5-0.0183 1.18-0.123 1.66-0.614 2.84-0.933 2.24-1.95 3.76-3.71 5.55-1.81 1.85-4.56 3.97-6.03 4.66-0.98 0.46-2.23 0.676-2.98 0.514z"/>
<path d="m117 92.9c-2.42-0.848-4.26-2.3-9.08-7.12-2.36-2.37-2.89-3-3.38-4.02-0.824-1.74-0.887-2.36-0.356-3.53 0.24-0.531 0.649-1.3 0.909-1.7 0.435-0.676 0.547-0.742 1.41-0.831 0.518-0.0528 2.67-0.281 4.78-0.508 6.89-0.739 9.74-0.546 16.4 1.11l3.15 0.783 0.166 0.65c0.302 1.18 0.391 2.49 0.253 3.69-0.131 1.14-0.18 1.23-1.25 2.37-1.35 1.44-2.11 2.81-2.66 4.76-0.487 1.73-0.865 2.17-2.86 3.33-2.6 1.51-5.13 1.85-7.49 1.02z"/>
<path d="m143 142c-0.656-0.206-1.22-0.718-1.63-1.48-0.502-0.937-0.393-3.47 0.212-4.93 0.757-1.83 4.99-15.4 7.47-24 0.887-3.06 0.915-3.12 1.73-3.86l0.826-0.75 9.65 0.0806c9.58 0.08 9.67 0.0773 12.8-0.371 2.7-0.392 3.67-0.449 7.38-0.428 3.94 0.0219 4.37 0.0556 5.53 0.43 2.25 0.727 3.27 1.76 3.26 3.28-7e-3 0.789-1.59 6.38-3.21 11.4-1.75 5.38-4.68 15.5-5.03 17.3-0.385 2.05-0.667 2.85-1.14 3.24-0.179 0.146-5.13 0.184-18.1 0.138-9.83-0.0345-18.2-0.0245-18.5 0.0223-0.343 0.0467-0.866 9e-3 -1.16-0.0845zm18.8-8.48c1.71-0.627 3.25-1.51 4.07-2.35l0.708-0.718 0.22 0.536c0.243 0.591 0.978 0.97 1.59 0.821 0.225-0.0544 1.01-0.877 1.82-1.91 0.785-0.997 2.21-2.73 3.16-3.85 2.8-3.28 2.78-3.66-0.337-6.53-1.13-1.04-2.21-1.95-2.39-2.03-0.269-0.108-0.175-0.191 0.495-0.441 0.455-0.169 0.908-0.455 1.01-0.636 0.585-1.07-0.219-2.26-1.41-2.08-0.815 0.124-3.31 1.34-4.14 2.02-0.831 0.681-1.72 1.99-1.98 2.92-0.256 0.92-0.239 3.24 0.0357 4.73l0.213 1.16-1.27 1.99c-1.15 1.81-1.28 1.95-1.36 1.5-0.0488-0.27-0.238-0.789-0.42-1.15l-0.331-0.661 0.799-3.61c0.649-2.93 0.869-3.66 1.17-3.87 1.36-0.955 1.74-1.93 1.02-2.66-0.705-0.717-1.35-0.508-4.04 1.31-3.97 2.69-4.87 3.78-4.42 5.34 0.208 0.717 3.72 6.23 4.21 6.62 0.159 0.124 0.521 0.227 0.804 0.229 0.771 6e-3 0.508 0.396-0.515 0.763-1.13 0.405-1.56 0.834-1.57 1.55-3e-3 0.402 0.138 0.697 0.476 0.993 0.607 0.531 0.885 0.529 2.37-0.0155z"/>
</g>
<g fill="#ffae00">
<path d="m161 60c-1.53-0.176-3.64-0.654-6.57-1.49-1.89-0.536-2.31-0.589-5.55-0.695-3.45-0.113-4.41-0.0551-4.41 0.266-2e-3 0.232 0.433 0.348 3.07 0.818l2.35 0.417-3.03 0.0946c-1.67 0.0521-4.9 0.131-7.18 0.176l-4.15 0.0817 0.31-0.691c0.587-1.31 0.823-2.48 1.48-7.36 0.364-2.69 0.825-5.81 1.03-6.93 0.2-1.12 0.578-3.56 0.841-5.42 1.09-7.7 1.82-10.9 3.14-13.5 2.85-5.8 7.26-9.97 13.2-12.4 2.19-0.915 5.54-1.8 7.66-2.03 2.51-0.271 9.07-0.0528 10.9 0.361 3.41 0.784 7.73 2.7 10.4 4.6 1.85 1.32 4.57 3.86 5.73 5.35 3.63 4.65 5.3 11.9 3.96 17.2-0.553 2.19-1.52 4.91-2.29 6.39-2.09 4.07-5.78 7.97-9.84 10.4-4.21 2.52-9.25 4.25-13.2 4.55-2.31 0.172-5.87 0.133-7.76-0.0855zm-8.01-3.35c1.4-1.16 1.02-3.1-0.609-3.11-0.278-0.0023-0.682 0.116-0.896 0.264-0.364 0.25-0.482 0.217-1.76-0.504-1.98-1.11-2.96-2.13-3.34-3.46-0.642-2.24-0.255-5.01 1.24-8.89 0.809-2.1 0.734-3.52-0.24-4.55-0.422-0.449-0.426-0.482-0.156-1.23 0.421-1.16 0.349-1.9-0.403-4.14-0.893-2.66-1.16-4.25-0.868-5.27 0.265-0.931 0.726-1.19 2.74-1.55 1.94-0.345 2.61-0.586 3.02-1.1 0.775-0.969 0.0435-2.46-1.12-2.3-1.82 0.26-4.86 1.01-5.38 1.33-1.67 1.01-2.35 2.61-2.24 5.23 0.0576 1.31 0.221 2.07 0.871 4.02l0.8 2.41-0.66 1.06c-0.695 1.11-0.845 1.97-0.434 2.48 0.129 0.158 0.583 0.445 1.01 0.638s0.774 0.386 0.774 0.428c-3.6e-4 0.0429-0.374 1.16-0.83 2.49-1.39 4.04-1.68 6.44-1.11 9.06 0.654 3.01 1.79 4.29 5.64 6.31 1.92 1.01 3.07 1.12 3.96 0.389zm30.4-3.41c4.54-2.29 5.76-3.94 5.98-8.14 0.125-2.34-0.147-3.76-1.34-7.03-0.469-1.28-0.853-2.42-0.852-2.53 8.8e-4 -0.106 0.396-0.367 0.877-0.58 1.46-0.646 1.61-1.41 0.576-2.88-0.387-0.55-0.703-1.09-0.702-1.2s0.328-1.14 0.726-2.28c0.888-2.54 1.18-4.28 0.952-5.76-0.304-2-1.13-3.14-2.76-3.84-0.545-0.233-2.76-0.715-5.16-1.12-1.22-0.207-2.01 1.52-1.09 2.39 0.425 0.406 1.68 0.781 3.82 1.14 0.886 0.149 1.45 0.352 1.78 0.636 0.453 0.397 0.474 0.492 0.442 1.99-0.0294 1.38-0.136 1.86-0.878 3.93-0.465 1.3-0.847 2.56-0.849 2.79s0.141 0.824 0.317 1.3l0.321 0.865-0.502 0.552c-0.599 0.659-0.957 1.82-0.812 2.63 0.0577 0.323 0.337 1.16 0.62 1.87 1.46 3.63 1.93 6.08 1.54 8.06-0.416 2.11-1.29 3.07-4.03 4.43-1.29 0.641-1.36 0.655-1.87 0.385-0.735-0.388-1.16-0.356-1.74 0.132-0.375 0.317-0.491 0.569-0.482 1.04 0.0256 1.28 0.955 2.08 2.45 2.11 0.741 0.0121 1.21-0.144 2.68-0.882zm-28-0.464c1.08-0.44 1.24-0.899 1.13-3.18-0.0965-2-0.392-3.69-1.55-8.86-0.722-3.24-0.898-5.43-0.586-7.3 0.122-0.733 0.279-2.43 0.348-3.78 0.0697-1.35 0.176-2.45 0.237-2.45 0.0609 5.08e-4 0.394 1.83 0.741 4.06 1.07 6.86 3.17 15.7 4.49 18.8 0.371 0.88 1.06 1.41 1.86 1.41 1.34 0.0077 3.59-1.78 4.35-3.45 1.16-2.57 1.15-5.71-0.0245-10.8-0.583-2.54-1.59-9.89-1.74-12.7-0.117-2.19-0.123-2.21-0.683-2.72-0.636-0.578-1.36-0.668-2.15-0.268-0.791 0.401-0.983 1.09-0.88 3.17 0.128 2.59 1.21 10.5 1.8 13.1 0.274 1.23 0.585 2.83 0.692 3.56 0.246 1.69 0.109 4.2-0.269 4.89l-0.285 0.526-0.346-1.15c-0.732-2.44-2.64-11.5-3.3-15.7-1.27-8.04-1.85-8.93-4.94-7.6-2.31 1-3.18 2.95-3.23 7.22-9e-3 0.771-0.153 2.25-0.318 3.29-0.462 2.9-0.256 5.01 1.03 10.5 0.807 3.47 1.08 5.2 1.07 6.69-0.0148 1.87 0.489 2.65 1.89 2.94 0.0276 0.0057 0.323-0.101 0.656-0.237zm16-3.52 0.525-0.516 0.0428-3c0.0235-1.65 0.0964-3.18 0.162-3.4 0.108-0.37 0.29-0.228 2.02 1.58 2.67 2.79 4.36 3.83 7.07 4.35 0.86 0.165 1.31 0.166 1.91 0.0063 1.84-0.485 2.6-2.25 1.46-3.41-0.482-0.49-0.608-0.532-1.29-0.429-2.65 0.402-3.58-0.0886-7.22-3.78l-2.64-2.68 0.345-0.548c0.532-0.846 3.14-3.25 5.12-4.73 1.73-1.29 3.49-2.93 4.1-3.84 0.492-0.727 0.395-1.72-0.23-2.36-0.482-0.49-0.622-0.538-1.35-0.462-0.731 0.0763-0.922 0.203-1.88 1.25-0.588 0.641-1.93 1.81-2.98 2.6s-2.38 1.88-2.96 2.43l-1.04 0.987 0.112-1.25c0.0614-0.685 0.203-2.45 0.315-3.91 0.112-1.47 0.297-3.45 0.412-4.41 0.228-1.91 0.0976-2.58-0.595-3.08-0.615-0.438-1.63-0.343-2.25 0.211-0.476 0.43-0.559 0.658-0.728 2-0.568 4.51-1.48 19.6-1.42 23.5 0.0386 2.55 0.0403 2.55 0.535 2.99 0.728 0.636 1.76 0.606 2.45-0.0707z"/>
<path d="m168 128c1.4e-4 -0.0165 0.0831-0.486 0.184-1.04 0.101-0.557 0.396-2.19 0.655-3.63 0.259-1.44 0.481-2.65 0.492-2.68 0.0143-0.0401 0.12 0.0313 0.319 0.215 0.164 0.151 0.799 0.713 1.41 1.25l1.11 0.973-0.135 0.18c-0.0742 0.0992-0.585 0.697-1.13 1.33-1.28 1.47-1.55 1.79-2.23 2.63-0.601 0.743-0.677 0.83-0.676 0.785z"/>
<path d="m167 130c0.0142-0.0366 0.11-0.25 0.213-0.475 0.386-0.844 0.528-1.65 0.501-2.86-0.0187-0.842-0.0823-1.37-0.32-2.67-0.0695-0.38-0.164-0.951-0.21-1.27l-0.0837-0.578 0.0938-0.157c0.0516-0.0861 0.471-0.752 0.933-1.48 0.72-1.14 0.843-1.31 0.867-1.21 0.0549 0.212 0.141 0.332 0.528 0.732l0.391 0.404-1.37 7.61-0.717 0.946c-0.731 0.966-0.872 1.14-0.823 1.01z"/>
<path d="m167 122c-0.0351-0.419 0.0441-1.05 0.186-1.49 0.214-0.658 0.802-1.36 1.57-1.86 0.186-0.123 0.348-0.224 0.359-0.224 0.0116 1e-4 -0.0311 0.0919-0.095 0.204-0.0819 0.144-0.123 0.294-0.141 0.511l-0.0245 0.307-1.83 2.88z"/>
<path d="m161 131c0.0368-0.0606 1.78-2.81 2.67-4.22 0.309-0.487 0.603-0.952 0.652-1.03 0.116-0.189 0.14-0.144 0.2 0.376 0.103 0.886 0.0245 1.78-0.203 2.31-0.408 0.954-1.37 1.77-2.87 2.43-0.478 0.21-0.502 0.217-0.452 0.136z"/>
<path d="m161 127c-0.052-0.139-0.926-1.46-1.67-2.53-0.875-1.25-1.02-1.49-0.956-1.61 0.0604-0.111 0.511-0.493 1.06-0.898 0.54-0.399 3.25-2.25 3.27-2.23 6e-3 8e-3 -0.108 0.544-0.254 1.19s-0.508 2.26-0.803 3.58c-0.296 1.32-0.554 2.44-0.574 2.48-0.0328 0.0788-0.0381 0.0795-0.0647 8e-3z"/>
<path d="m48.6 45.9c-0.324-0.615-0.283-2.1 0.0833-3 0.399-0.973 1.36-2.36 2.25-3.25 0.88-0.881 2.04-1.49 3.54-1.86 1.5-0.365 3.22-0.327 3.22 0.0707-2e-3 0.244-2.13 2.97-3.3 4.22-1.24 1.33-3.32 3.18-4.27 3.8-0.844 0.551-1.23 0.553-1.51 0.0106z"/>
</g>
<g fill="#ff0008">
<path d="m119 44.8c-0.141-0.22-0.44-0.742-0.664-1.16-1.27-2.36-3.41-4.84-5.92-6.85l-0.481-0.385 0.216-0.435c0.119-0.239 0.347-0.592 0.507-0.784l0.29-0.349 1.59 0.143c2.83 0.253 4.89 0.878 5.87 1.78 0.61 0.561 1.19 1.81 1.29 2.76 0.104 1.05-0.152 3.1-0.481 3.84-0.278 0.631-0.956 1.33-1.6 1.66-0.349 0.177-0.368 0.17-0.617-0.218z"/>
<path d="m48.7 45.9c-0.098-0.175-0.155-0.721-0.147-1.42 0.011-1.03 0.0495-1.2 0.438-1.95 1.28-2.44 2.93-3.92 5.09-4.54 1.54-0.447 3.53-0.507 3.53-0.106-0.0021 0.253-2.41 3.28-3.56 4.47-1.11 1.15-3.17 2.95-4 3.5-0.628 0.413-1.13 0.428-1.35 0.0408z"/>
<g stroke="#000" stroke-linecap="round" stroke-linejoin="round" stroke-width=".997">
<path d="m128 181c-0.648-0.0834-0.743-0.143-1.48-0.93l-0.626-0.67-0.0578-0.771c-0.204-2.73 0.885-5.4 3.06-7.51 3.08-2.99 8.47-4.99 13.3-4.95 4.06 0.035 6.33 1.51 5.9 3.82-0.127 0.685-0.671 1.79-1.25 2.54-1.72 2.22-6.31 5.52-9.6 6.89-2.14 0.892-7.51 1.81-9.26 1.58z"/>
<path d="m156 180c-0.601-0.306-0.853-0.598-1.29-1.49-0.481-0.981-0.611-1.61-0.602-2.93 7e-3 -1.04 0.0347-1.24 0.267-1.91 1.23-3.58 4.36-7.49 7.1-8.85 1.19-0.594 2.18-0.633 3.44-0.136 0.67 0.265 0.685 0.278 1.15 0.997 1.31 2.03 1.32 3.73 0.0147 6.23-1.82 3.5-4.72 6.76-7.03 7.88-0.808 0.394-1.21 0.495-1.93 0.49-0.476-4e-3 -0.688-0.0563-1.12-0.279z"/>
<path d="m133 161c-0.169-0.109-0.306-0.285-0.336-0.432-0.0277-0.136-0.0669-0.334-0.0872-0.439-0.0202-0.105 5e-3 -0.406 0.0569-0.667 0.377-1.91 2.64-3.57 4.64-3.4 0.662 0.0587 0.91 0.244 1.13 0.85 0.125 0.335 0.13 0.462 0.0369 0.851-0.366 1.53-2.7 3.27-4.53 3.38-0.525 0.031-0.674 7e-3 -0.912-0.147z"/>
<path d="m143 162c-0.328-0.101-0.935-0.911-1.2-1.61-0.228-0.592-0.301-1.64-0.146-2.09 0.144-0.425 0.567-0.891 1.02-1.13 0.308-0.162 0.51-0.191 1.28-0.184l0.909 8e-3 0.484 0.486c0.64 0.643 0.883 1.2 0.873 2.02-0.0132 1.03-0.582 1.95-1.49 2.4-0.454 0.225-1.19 0.27-1.72 0.105z"/>
<path d="m150 162c-0.563-0.3-1.37-1.19-1.68-1.86-0.412-0.89-0.329-1.88 0.196-2.34 0.159-0.139 0.354-0.181 0.926-0.198 0.651-0.0199 0.775 4e-3 1.21 0.233 0.577 0.302 1 0.83 1.19 1.48 0.272 0.944 0.0798 2.04-0.455 2.6-0.246 0.256-0.362 0.312-0.646 0.306-0.19-4e-3 -0.525-0.103-0.744-0.219z"/>
<path d="m158 162c-0.269-0.0651-0.62-0.189-0.781-0.276-0.321-0.173-0.635-0.627-0.633-0.913 2e-3 -0.351 0.463-1.09 0.992-1.58 0.739-0.694 1.2-0.886 2.11-0.878 0.625 6e-3 0.79 0.0426 1.24 0.278 1.03 0.538 1.39 1.45 0.866 2.21-0.233 0.337-1.07 0.876-1.7 1.09-0.509 0.176-1.53 0.211-2.1 0.0734z"/>
<path d="m166 161c-1.09-0.482-1.64-1.96-1.11-2.98 0.374-0.714 1.04-0.868 1.96-0.452 0.35 0.158 0.455 0.268 0.672 0.709 0.907 1.84 0.618 2.89-0.785 2.87-0.234-4e-3 -0.565-0.0688-0.736-0.144z"/>
<path d="m170 161c-0.888-0.278-1.5-1.04-1.5-1.87 2e-3 -0.413 0.203-0.96 0.498-1.36 0.764-1.03 2.34-1.16 3.1-0.239 0.801 0.968 0.324 3.06-0.793 3.47-0.284 0.105-0.974 0.105-1.31 8.6e-4z"/>
</g>
</g>
</svg>
